<svg id="visual" viewBox="0 0 900 600" width="900" height="600" xmlns="http://www.w3.org/2000/svg" xmlns:xlink="http://www.w3.org/1999/xlink" version="1.1"><rect x="0" y="0" width="900" height="600" fill="#001220"></rect><path d="M0 394L21.5 388.2C43 382.3 86 370.7 128.8 370.7C171.7 370.7 214.3 382.3 257.2 396.2C300 410 343 426 385.8 434.8C428.7 443.7 471.3 445.3 514.2 435.2C557 425 600 403 642.8 391.8C685.7 380.7 728.3 380.3 771.2 377.8C814 375.3 857 370.7 878.5 368.3L900 366L900 601L878.5 601C857 601 814 601 771.2 601C728.3 601 685.7 601 642.8 601C600 601 557 601 514.2 601C471.3 601 428.7 601 385.8 601C343 601 300 601 257.2 601C214.3 601 171.7 601 128.8 601C86 601 43 601 21.5 601L0 601Z" fill="#fa7268"></path><path d="M0 460L21.5 454.3C43 448.7 86 437.3 128.8 434.5C171.7 431.7 214.3 437.3 257.2 434C300 430.7 343 418.3 385.8 423.8C428.7 429.3 471.3 452.7 514.2 455.7C557 458.7 600 441.3 642.8 432.8C685.7 424.3 728.3 424.7 771.2 422.2C814 419.7 857 414.3 878.5 411.7L900 409L900 601L878.5 601C857 601 814 601 771.2 601C728.3 601 685.7 601 642.8 601C600 601 557 601 514.2 601C471.3 601 428.7 601 385.8 601C343 601 300 601 257.2 601C214.3 601 171.7 601 128.8 601C86 601 43 601 21.5 601L0 601Z" fill="#ef5f67"></path><path d="M0 442L21.5 444.2C43 446.3 86 450.7 128.8 461.8C171.7 473 214.3 491 257.2 494.2C300 497.3 343 485.7 385.8 475.7C428.7 465.7 471.3 457.3 514.2 457.3C557 457.3 600 465.7 642.8 464.7C685.7 463.7 728.3 453.3 771.2 450.5C814 447.7 857 452.3 878.5 454.7L900 457L900 601L878.5 601C857 601 814 601 771.2 601C728.3 601 685.7 601 642.8 601C600 601 557 601 514.2 601C471.3 601 428.7 601 385.8 601C343 601 300 601 257.2 601C214.3 601 171.7 601 128.8 601C86 601 43 601 21.5 601L0 601Z" fill="#e34c67"></path><path d="M0 482L21.5 488.3C43 494.7 86 507.3 128.8 512.8C171.7 518.3 214.3 516.7 257.2 516.2C300 515.7 343 516.3 385.8 513.2C428.7 510 471.3 503 514.2 500.8C557 498.7 600 501.3 642.8 500.2C685.7 499 728.3 494 771.2 490.5C814 487 857 485 878.5 484L900 483L900 601L878.5 601C857 601 814 601 771.2 601C728.3 601 685.7 601 642.8 601C600 601 557 601 514.2 601C471.3 601 428.7 601 385.8 601C343 601 300 601 257.2 601C214.3 601 171.7 601 128.8 601C86 601 43 601 21.5 601L0 601Z" fill="#d53867"></path><path d="M0 559L21.5 559.7C43 560.3 86 561.7 128.8 562C171.7 562.3 214.3 561.7 257.2 556.7C300 551.7 343 542.3 385.8 538.5C428.7 534.7 471.3 536.3 514.2 535C557 533.7 600 529.3 642.8 529C685.7 528.7 728.3 532.3 771.2 539.5C814 546.7 857 557.3 878.5 562.7L900 568L900 601L878.5 601C857 601 814 601 771.2 601C728.3 601 685.7 601 642.8 601C600 601 557 601 514.2 601C471.3 601 428.7 601 385.8 601C343 601 300 601 257.2 601C214.3 601 171.7 601 128.8 601C86 601 43 601 21.5 601L0 601Z" fill="#c62368"></path></svg>