<svg id="visual" viewBox="0 0 900 600" width="900" height="600" xmlns="http://www.w3.org/2000/svg" xmlns:xlink="http://www.w3.org/1999/xlink" version="1.1"><g stroke-width="1" stroke-linejoin="bevel"><path d="M481 279L414 229L372 276Z" fill="#0d0f10" stroke="#0d0f10"></path><path d="M414 229L333 237L372 276Z" fill="#0a0c0d" stroke="#0a0c0d"></path><path d="M397 409L468 393L372 276Z" fill="#0c0e0f" stroke="#0c0e0f"></path><path d="M372 276L468 393L481 279Z" fill="#060809" stroke="#060809"></path><path d="M332 405L397 409L372 276Z" fill="#000203" stroke="#000203"></path><path d="M333 237L288 297L372 276Z" fill="#090b0c" stroke="#090b0c"></path><path d="M622 329L564 231L481 279Z" fill="#0a0c0d" stroke="#0a0c0d"></path><path d="M481 279L526 160L414 229Z" fill="#060809" stroke="#060809"></path><path d="M288 297L332 405L372 276Z" fill="#030506" stroke="#030506"></path><path d="M564 231L526 160L481 279Z" fill="#030506" stroke="#030506"></path><path d="M414 229L365 90L333 237Z" fill="#090b0c" stroke="#090b0c"></path><path d="M532 504L565 389L468 393Z" fill="#040607" stroke="#040607"></path><path d="M468 393L565 389L481 279Z" fill="#000000" stroke="#000000"></path><path d="M565 389L622 329L481 279Z" fill="#090b0c" stroke="#090b0c"></path><path d="M581 73L526 99L526 160Z" fill="#0c0e0f" stroke="#0c0e0f"></path><path d="M526 160L365 90L414 229Z" fill="#000203" stroke="#000203"></path><path d="M173 214L188 328L288 297Z" fill="#010304" stroke="#010304"></path><path d="M581 73L526 160L564 231Z" fill="#0c0e0f" stroke="#0c0e0f"></path><path d="M526 160L526 99L365 90Z" fill="#070a0b" stroke="#070a0b"></path><path d="M332 405L410 504L397 409Z" fill="#0a0c0d" stroke="#0a0c0d"></path><path d="M397 409L410 504L468 393Z" fill="#0c0e0f" stroke="#0c0e0f"></path><path d="M205 384L293 472L332 405Z" fill="#0c0e0f" stroke="#0c0e0f"></path><path d="M332 405L293 472L410 504Z" fill="#000203" stroke="#000203"></path><path d="M173 214L288 297L333 237Z" fill="#070a0b" stroke="#070a0b"></path><path d="M288 297L205 384L332 405Z" fill="#060809" stroke="#060809"></path><path d="M188 328L205 384L288 297Z" fill="#0a0c0d" stroke="#0a0c0d"></path><path d="M410 504L532 504L468 393Z" fill="#000203" stroke="#000203"></path><path d="M565 389L735 369L622 329Z" fill="#070a0b" stroke="#070a0b"></path><path d="M735 369L676 285L622 329Z" fill="#090b0c" stroke="#090b0c"></path><path d="M622 329L676 285L564 231Z" fill="#010304" stroke="#010304"></path><path d="M288 0L283 76L365 90Z" fill="#010304" stroke="#010304"></path><path d="M365 90L283 76L333 237Z" fill="#0c0e0f" stroke="#0c0e0f"></path><path d="M694 232L581 73L564 231Z" fill="#040607" stroke="#040607"></path><path d="M507 0L380 0L365 90Z" fill="#040607" stroke="#040607"></path><path d="M283 76L173 214L333 237Z" fill="#090b0c" stroke="#090b0c"></path><path d="M676 285L694 232L564 231Z" fill="#090b0c" stroke="#090b0c"></path><path d="M532 504L603 498L565 389Z" fill="#070a0b" stroke="#070a0b"></path><path d="M507 0L365 90L526 99Z" fill="#090b0c" stroke="#090b0c"></path><path d="M581 73L507 0L526 99Z" fill="#0a0c0d" stroke="#0a0c0d"></path><path d="M380 0L288 0L365 90Z" fill="#0a0c0d" stroke="#0a0c0d"></path><path d="M283 76L193 69L173 214Z" fill="#090b0c" stroke="#090b0c"></path><path d="M288 0L193 69L283 76Z" fill="#060809" stroke="#060809"></path><path d="M603 498L735 369L565 389Z" fill="#000203" stroke="#000203"></path><path d="M676 285L825 260L694 232Z" fill="#030506" stroke="#030506"></path><path d="M334 600L410 504L293 472Z" fill="#030506" stroke="#030506"></path><path d="M334 600L373 600L410 504Z" fill="#0c0e0f" stroke="#0c0e0f"></path><path d="M410 504L520 600L532 504Z" fill="#010304" stroke="#010304"></path><path d="M532 504L596 600L603 498Z" fill="#0a0c0d" stroke="#0a0c0d"></path><path d="M692 77L590 0L581 73Z" fill="#000000" stroke="#000000"></path><path d="M581 73L590 0L507 0Z" fill="#0c0e0f" stroke="#0c0e0f"></path><path d="M188 328L121 399L205 384Z" fill="#0a0c0d" stroke="#0a0c0d"></path><path d="M205 384L176 495L293 472Z" fill="#000000" stroke="#000000"></path><path d="M79 266L121 399L188 328Z" fill="#060809" stroke="#060809"></path><path d="M79 266L188 328L173 214Z" fill="#010304" stroke="#010304"></path><path d="M121 399L176 495L205 384Z" fill="#030506" stroke="#030506"></path><path d="M197 600L334 600L293 472Z" fill="#090b0c" stroke="#090b0c"></path><path d="M373 600L520 600L410 504Z" fill="#0c0e0f" stroke="#0c0e0f"></path><path d="M603 498L673 524L735 369Z" fill="#0d0f10" stroke="#0d0f10"></path><path d="M694 232L692 77L581 73Z" fill="#0c0e0f" stroke="#0c0e0f"></path><path d="M808 129L692 77L694 232Z" fill="#0c0e0f" stroke="#0c0e0f"></path><path d="M193 69L101 186L173 214Z" fill="#0a0c0d" stroke="#0a0c0d"></path><path d="M596 600L673 524L603 498Z" fill="#070a0b" stroke="#070a0b"></path><path d="M101 186L79 266L173 214Z" fill="#090b0c" stroke="#090b0c"></path><path d="M520 600L596 600L532 504Z" fill="#0c0e0f" stroke="#0c0e0f"></path><path d="M835 482L772 436L673 524Z" fill="#0a0c0d" stroke="#0a0c0d"></path><path d="M673 524L772 436L735 369Z" fill="#0c0e0f" stroke="#0c0e0f"></path><path d="M735 369L825 260L676 285Z" fill="#010304" stroke="#010304"></path><path d="M288 0L163 0L193 69Z" fill="#090b0c" stroke="#090b0c"></path><path d="M193 69L71 82L101 186Z" fill="#060809" stroke="#060809"></path><path d="M116 600L197 600L176 495Z" fill="#010304" stroke="#010304"></path><path d="M176 495L197 600L293 472Z" fill="#010304" stroke="#010304"></path><path d="M779 0L699 0L692 77Z" fill="#010304" stroke="#010304"></path><path d="M692 77L699 0L590 0Z" fill="#010304" stroke="#010304"></path><path d="M900 407L825 260L735 369Z" fill="#000203" stroke="#000203"></path><path d="M163 0L71 82L193 69Z" fill="#060809" stroke="#060809"></path><path d="M0 174L0 333L79 266Z" fill="#0a0c0d" stroke="#0a0c0d"></path><path d="M596 600L686 600L673 524Z" fill="#0d0f10" stroke="#0d0f10"></path><path d="M839 166L808 129L694 232Z" fill="#0c0e0f" stroke="#0c0e0f"></path><path d="M0 420L85 529L121 399Z" fill="#060809" stroke="#060809"></path><path d="M121 399L85 529L176 495Z" fill="#000000" stroke="#000000"></path><path d="M0 333L121 399L79 266Z" fill="#060809" stroke="#060809"></path><path d="M825 260L839 166L694 232Z" fill="#040607" stroke="#040607"></path><path d="M0 174L79 266L101 186Z" fill="#030506" stroke="#030506"></path><path d="M0 117L0 174L101 186Z" fill="#0a0c0d" stroke="#0a0c0d"></path><path d="M85 529L116 600L176 495Z" fill="#060809" stroke="#060809"></path><path d="M0 333L0 420L121 399Z" fill="#060809" stroke="#060809"></path><path d="M85 529L0 600L116 600Z" fill="#060809" stroke="#060809"></path><path d="M163 0L78 0L71 82Z" fill="#000203" stroke="#000203"></path><path d="M71 82L0 117L101 186Z" fill="#000203" stroke="#000203"></path><path d="M900 89L779 0L808 129Z" fill="#0d0f10" stroke="#0d0f10"></path><path d="M808 129L779 0L692 77Z" fill="#090b0c" stroke="#090b0c"></path><path d="M811 600L835 482L673 524Z" fill="#070a0b" stroke="#070a0b"></path><path d="M900 407L900 262L825 260Z" fill="#060809" stroke="#060809"></path><path d="M825 260L900 209L839 166Z" fill="#0a0c0d" stroke="#0a0c0d"></path><path d="M0 0L0 117L71 82Z" fill="#000203" stroke="#000203"></path><path d="M900 407L735 369L772 436Z" fill="#0a0c0d" stroke="#0a0c0d"></path><path d="M839 166L900 89L808 129Z" fill="#060809" stroke="#060809"></path><path d="M900 262L900 209L825 260Z" fill="#0a0c0d" stroke="#0a0c0d"></path><path d="M0 420L0 518L85 529Z" fill="#010304" stroke="#010304"></path><path d="M835 482L900 407L772 436Z" fill="#0a0c0d" stroke="#0a0c0d"></path><path d="M686 600L811 600L673 524Z" fill="#0a0c0d" stroke="#0a0c0d"></path><path d="M835 482L900 505L900 407Z" fill="#010304" stroke="#010304"></path><path d="M78 0L0 0L71 82Z" fill="#0a0c0d" stroke="#0a0c0d"></path><path d="M900 209L900 89L839 166Z" fill="#090b0c" stroke="#090b0c"></path><path d="M811 600L900 505L835 482Z" fill="#040607" stroke="#040607"></path><path d="M0 518L0 600L85 529Z" fill="#090b0c" stroke="#090b0c"></path><path d="M900 89L900 0L779 0Z" fill="#060809" stroke="#060809"></path><path d="M811 600L900 600L900 505Z" fill="#000203" stroke="#000203"></path></g></svg>