<svg id="visual" viewBox="0 0 900 600" width="900" height="600" xmlns="http://www.w3.org/2000/svg" xmlns:xlink="http://www.w3.org/1999/xlink" version="1.1"><rect x="0" y="0" width="900" height="600" fill="#001220"></rect><defs><linearGradient id="grad1_0" x1="33.3%" y1="0%" x2="100%" y2="100%"><stop offset="20%" stop-color="#001220" stop-opacity="1"></stop><stop offset="80%" stop-color="#001220" stop-opacity="1"></stop></linearGradient></defs><defs><linearGradient id="grad2_0" x1="0%" y1="0%" x2="66.7%" y2="100%"><stop offset="20%" stop-color="#001220" stop-opacity="1"></stop><stop offset="80%" stop-color="#001220" stop-opacity="1"></stop></linearGradient></defs><g transform="translate(900, 0)"><path d="M0 540.8C-105.5 533 -211.1 525.2 -270.4 468.4C-329.7 411.6 -342.8 305.7 -380.2 219.5C-417.5 133.3 -479.2 66.6 -540.8 0L0 0Z" fill="#FBAE3C"></path></g><g transform="translate(0, 600)"><path d="M0 -540.8C96.5 -527.8 193.1 -514.8 270.4 -468.4C347.7 -422 405.9 -342.1 447.7 -258.5C489.6 -174.9 515.2 -87.4 540.8 0L0 0Z" fill="#FBAE3C"></path></g></svg>