<svg id="visual" viewBox="0 0 900 600" width="900" height="600" xmlns="http://www.w3.org/2000/svg" xmlns:xlink="http://www.w3.org/1999/xlink" version="1.1"><path d="M0 55L82 109L164 55L245 61L327 79L409 145L491 157L573 157L655 73L736 169L818 133L900 67L900 0L818 0L736 0L655 0L573 0L491 0L409 0L327 0L245 0L164 0L82 0L0 0Z" fill="#001122"></path><path d="M0 229L82 205L164 307L245 163L327 217L409 283L491 331L573 277L655 337L736 349L818 373L900 175L900 65L818 131L736 167L655 71L573 155L491 155L409 143L327 77L245 59L164 53L82 107L0 53Z" fill="#00255b"></path><path d="M0 343L82 313L164 409L245 295L327 289L409 337L491 409L573 337L655 391L736 403L818 463L900 307L900 173L818 371L736 347L655 335L573 275L491 329L409 281L327 215L245 161L164 305L82 203L0 227Z" fill="#003194"></path><path d="M0 547L82 511L164 511L245 565L327 511L409 499L491 547L573 565L655 517L736 553L818 553L900 553L900 305L818 461L736 401L655 389L573 335L491 407L409 335L327 287L245 293L164 407L82 311L0 341Z" fill="#1535ca"></path><path d="M0 601L82 601L164 601L245 601L327 601L409 601L491 601L573 601L655 601L736 601L818 601L900 601L900 551L818 551L736 551L655 515L573 563L491 545L409 497L327 509L245 563L164 509L82 509L0 545Z" fill="#482dfd"></path></svg>