<svg xmlns="http://www.w3.org/2000/svg" version="1.1" xmlns:xlink="http://www.w3.org/1999/xlink" xmlns:svgjs="http://svgjs.dev/svgjs" width="1440" height="560" preserveAspectRatio="none" viewBox="0 0 1440 560"><g mask="url(&quot;#SvgjsMask1036&quot;)" fill="none"><rect width="1440" height="560" x="0" y="0" fill="#1e3266"></rect><path d="M1488 560L0 560 L0 135.17Q45.06 108.22, 72 153.28Q90.48 99.77, 144 118.25Q213.05 67.3, 264 136.35Q352.51 104.86, 384 193.36Q447.5 184.86, 456 248.35Q509.69 182.05, 576 235.74Q597.37 137.11, 696 158.48Q716.71 107.19, 768 127.9Q796.11 84, 840 112.11Q898.09 98.19, 912 156.28Q991 163.28, 984 242.27Q1055.85 194.12, 1104 265.96Q1123.94 165.9, 1224 185.85Q1260.13 101.97, 1344 138.1Q1386.67 108.77, 1416 151.44Q1508.64 172.09, 1488 264.73z" fill="#182f5d"></path><path d="M1464 560L0 560 L0 373.98Q34.21 288.19, 120 322.4Q153.29 235.69, 240 268.98Q317.08 226.06, 360 303.15Q450.55 273.7, 480 364.25Q493.75 258, 600 271.74Q642.92 242.66, 672 285.58Q770.43 264.01, 792 362.44Q832.47 282.91, 912 323.38Q961.44 252.82, 1032 302.27Q1061.18 259.45, 1104 288.63Q1190.77 255.4, 1224 342.18Q1248.42 246.6, 1344 271.02Q1396.67 203.69, 1464 256.37z" fill="#25467d"></path><path d="M1560 560L0 560 L0 453.56Q68.25 401.81, 120 470.06Q141.65 371.71, 240 393.36Q252.16 333.52, 312 345.69Q358.24 319.93, 384 366.16Q506.07 368.24, 504 490.31Q464.6 378.91, 576 339.51Q610.57 302.07, 648 336.64Q722.86 291.5, 768 366.36Q854.87 333.23, 888 420.1Q980.05 392.15, 1008 484.2Q1034.89 439.1, 1080 465.99Q1121.83 387.82, 1200 429.65Q1286.16 395.81, 1320 481.98Q1343.88 385.87, 1440 409.75Q1471.56 321.31, 1560 352.86z" fill="#356cb1"></path><path d="M1536 560L0 560 L0 596.89Q-16.96 507.93, 72 490.98Q118.95 417.93, 192 464.88Q296.94 449.82, 312 554.76Q362.34 533.1, 384 583.44Q411.75 539.2, 456 566.95Q458.69 449.64, 576 452.33Q658.48 414.81, 696 497.29Q771.96 501.25, 768 577.21Q745.93 483.14, 840 461.08Q939.23 440.31, 960 539.55Q974.34 433.89, 1080 448.23Q1183.27 479.5, 1152 582.77Q1149.8 460.57, 1272 458.37Q1302.85 417.22, 1344 448.06Q1411.83 443.88, 1416 511.71Q1514.82 490.52, 1536 589.34z" fill="white"></path></g><defs><mask id="SvgjsMask1036"><rect width="1440" height="560" fill="#ffffff"></rect></mask></defs></svg>