<svg class="border shadow-md" viewBox="0 0 961.84 541.035" style="width: 961.84px; height: 541.035px;" xmlns="http://www.w3.org/2000/svg" preserveAspectRatio="none"><rect class="bg" id="bg" x="0" y="0" width="961.84" height="541.035" fill="#ffffff"/><path d="M 0 -54.1035 L 0 -54.10&#10;                L 64.12 -27.05&#10;                L 192.368 -54.10 L 192.368 -54.10&#10;                L 320.37 -27.05&#10;                L 384.736 -54.10 L 384.736 -54.10&#10;                L 450.74 -26.10&#10;                L 577.104 -54.10 L 577.104 -54.10&#10;                L 641.23 -27.05&#10;                L 769.472 -54.10 L 769.472 -54.10&#10;                L 833.59 -27.05&#10;                L 961.8399999999999 -54.10 L 961.8399999999999 -54.10&#10;                L 1091.84 -27.05&#10;                L 1154.2079999999999 -54.10  V 541.03 H 0 V -54.10 Z" fill="#FFDA6C"/><path d="M 0 0 L 0 0.00&#10;                L 64.12 45.00&#10;                L 192.368 0.00 L 192.368 0.00&#10;                L 256.49 30.00&#10;                L 384.736 0.00 L 384.736 0.00&#10;                L 516.74 41.00&#10;                L 577.104 0.00 L 577.104 0.00&#10;                L 683.10 27.05&#10;                L 769.472 0.00 L 769.472 0.00&#10;                L 848.47 27.05&#10;                L 961.8399999999999 0.00 L 961.8399999999999 0.00&#10;                L 1067.84 40.00&#10;                L 1154.2079999999999 0.00  V 541.03 H 0 V 0.00 Z" fill="#f6d46b"/><path d="M 0 54.1035 L 0 54.10&#10;                L 64.12 81.16&#10;                L 192.368 54.10 L 192.368 54.10&#10;                L 257.37 95.10&#10;                L 384.736 54.10 L 384.736 54.10&#10;                L 502.74 81.16&#10;                L 577.104 54.10 L 577.104 54.10&#10;                L 695.10 81.16&#10;                L 769.472 54.10 L 769.472 54.10&#10;                L 886.47 85.10&#10;                L 961.8399999999999 54.10 L 961.8399999999999 54.10&#10;                L 1025.96 107.10&#10;                L 1154.2079999999999 54.10  V 541.03 H 0 V 54.10 Z" fill="#edce6a"/><path d="M 0 108.207 L 0 108.21&#10;                L 102.00 151.21&#10;                L 192.368 108.21 L 192.368 108.21&#10;                L 309.37 136.21&#10;                L 384.736 108.21 L 384.736 108.21&#10;                L 474.74 145.21&#10;                L 577.104 108.21 L 577.104 108.21&#10;                L 645.10 135.26&#10;                L 769.472 108.21 L 769.472 108.21&#10;                L 877.47 135.26&#10;                L 961.8399999999999 108.21 L 961.8399999999999 108.21&#10;                L 1025.96 145.21&#10;                L 1154.2079999999999 108.21  V 541.03 H 0 V 108.21 Z" fill="#e4c869"/><path d="M 0 162.3105 L 0 162.31&#10;                L 64.12 189.36&#10;                L 192.368 162.31 L 192.368 162.31&#10;                L 256.49 189.36&#10;                L 384.736 162.31 L 384.736 162.31&#10;                L 452.74 189.36&#10;                L 577.104 162.31 L 577.104 162.31&#10;                L 643.10 203.31&#10;                L 769.472 162.31 L 769.472 162.31&#10;                L 833.59 191.31&#10;                L 961.8399999999999 162.31 L 961.8399999999999 162.31&#10;                L 1025.96 215.31&#10;                L 1154.2079999999999 162.31  V 541.03 H 0 V 162.31 Z" fill="#dbc268"/><path d="M 0 216.414 L 0 216.41&#10;                L 124.00 265.41&#10;                L 192.368 216.41 L 192.368 216.41&#10;                L 275.37 264.41&#10;                L 384.736 216.41 L 384.736 216.41&#10;                L 491.74 269.41&#10;                L 577.104 216.41 L 577.104 216.41&#10;                L 641.23 243.47&#10;                L 769.472 216.41 L 769.472 216.41&#10;                L 833.59 243.47&#10;                L 961.8399999999999 216.41 L 961.8399999999999 216.41&#10;                L 1060.84 251.41&#10;                L 1154.2079999999999 216.41  V 541.03 H 0 V 216.41 Z" fill="#d2bc67"/><path d="M 0 270.5175 L 0 270.52&#10;                L 64.12 297.57&#10;                L 192.368 270.52 L 192.368 270.52&#10;                L 314.37 314.52&#10;                L 384.736 270.52 L 384.736 270.52&#10;                L 470.74 303.52&#10;                L 577.104 270.52 L 577.104 270.52&#10;                L 680.10 297.57&#10;                L 769.472 270.52 L 769.472 270.52&#10;                L 858.47 297.57&#10;                L 961.8399999999999 270.52 L 961.8399999999999 270.52&#10;                L 1047.84 322.52&#10;                L 1154.2079999999999 270.52  V 541.03 H 0 V 270.52 Z" fill="#c9b666"/><path d="M 0 324.621 L 0 324.62&#10;                L 108.00 351.67&#10;                L 192.368 324.62 L 192.368 324.62&#10;                L 256.49 374.62&#10;                L 384.736 324.62 L 384.736 324.62&#10;                L 448.86 351.67&#10;                L 577.104 324.62 L 577.104 324.62&#10;                L 705.10 352.62&#10;                L 769.472 324.62 L 769.472 324.62&#10;                L 833.59 351.67&#10;                L 961.8399999999999 324.62 L 961.8399999999999 324.62&#10;                L 1082.84 363.62&#10;                L 1154.2079999999999 324.62  V 541.03 H 0 V 324.62 Z" fill="#c0b065"/><path d="M 0 378.7245 L 0 378.72&#10;                L 64.12 416.72&#10;                L 192.368 378.72 L 192.368 378.72&#10;                L 299.37 405.78&#10;                L 384.736 378.72 L 384.736 378.72&#10;                L 505.74 409.72&#10;                L 577.104 378.72 L 577.104 378.72&#10;                L 641.23 405.78&#10;                L 769.472 378.72 L 769.472 378.72&#10;                L 901.47 405.78&#10;                L 961.8399999999999 378.72 L 961.8399999999999 378.72&#10;                L 1025.96 405.78&#10;                L 1154.2079999999999 378.72  V 541.03 H 0 V 378.72 Z" fill="#b7aa64"/><path d="M 0 432.828 L 0 432.83&#10;                L 64.12 459.88&#10;                L 192.368 432.83 L 192.368 432.83&#10;                L 256.49 459.88&#10;                L 384.736 432.83 L 384.736 432.83&#10;                L 448.86 463.83&#10;                L 577.104 432.83 L 577.104 432.83&#10;                L 674.10 468.83&#10;                L 769.472 432.83 L 769.472 432.83&#10;                L 833.59 469.83&#10;                L 961.8399999999999 432.83 L 961.8399999999999 432.83&#10;                L 1088.84 459.88&#10;                L 1154.2079999999999 432.83  V 541.03 H 0 V 432.83 Z" fill="#aea463"/><path d="M 0 486.93149999999997 L 0 486.93&#10;                L 64.12 527.93&#10;                L 192.368 486.93 L 192.368 486.93&#10;                L 256.49 513.98&#10;                L 384.736 486.93 L 384.736 486.93&#10;                L 478.74 529.93&#10;                L 577.104 486.93 L 577.104 486.93&#10;                L 641.23 513.98&#10;                L 769.472 486.93 L 769.472 486.93&#10;                L 910.47 514.93&#10;                L 961.8399999999999 486.93 L 961.8399999999999 486.93&#10;                L 1050.84 513.98&#10;                L 1154.2079999999999 486.93  V 541.03 H 0 V 486.93 Z" fill="#a59e62"/></svg>