<svg id="visual" viewBox="0 0 900 600" width="900" height="600" xmlns="http://www.w3.org/2000/svg" xmlns:xlink="http://www.w3.org/1999/xlink" version="1.1"><path d="M0 133L13.7 120C27.3 107 54.7 81 82 66C109.3 51 136.7 47 163.8 51C191 55 218 67 245.2 70C272.3 73 299.7 67 327 71C354.3 75 381.7 89 409 87C436.3 85 463.7 67 491 59C518.3 51 545.7 53 573 61C600.3 69 627.7 83 654.8 94C682 105 709 113 736.2 108C763.3 103 790.7 85 818 78C845.3 71 872.7 75 886.3 77L900 79L900 0L886.3 0C872.7 0 845.3 0 818 0C790.7 0 763.3 0 736.2 0C709 0 682 0 654.8 0C627.7 0 600.3 0 573 0C545.7 0 518.3 0 491 0C463.7 0 436.3 0 409 0C381.7 0 354.3 0 327 0C299.7 0 272.3 0 245.2 0C218 0 191 0 163.8 0C136.7 0 109.3 0 82 0C54.7 0 27.3 0 13.7 0L0 0Z" fill="#6198ff"></path><path d="M0 301L13.7 289C27.3 277 54.7 253 82 249C109.3 245 136.7 261 163.8 275C191 289 218 301 245.2 306C272.3 311 299.7 309 327 299C354.3 289 381.7 271 409 257C436.3 243 463.7 233 491 227C518.3 221 545.7 219 573 220C600.3 221 627.7 225 654.8 226C682 227 709 225 736.2 222C763.3 219 790.7 215 818 212C845.3 209 872.7 207 886.3 206L900 205L900 77L886.3 75C872.7 73 845.3 69 818 76C790.7 83 763.3 101 736.2 106C709 111 682 103 654.8 92C627.7 81 600.3 67 573 59C545.7 51 518.3 49 491 57C463.7 65 436.3 83 409 85C381.7 87 354.3 73 327 69C299.7 65 272.3 71 245.2 68C218 65 191 53 163.8 49C136.7 45 109.3 49 82 64C54.7 79 27.3 105 13.7 118L0 131Z" fill="#3c80ff"></path><path d="M0 337L13.7 336C27.3 335 54.7 333 82 338C109.3 343 136.7 355 163.8 360C191 365 218 363 245.2 362C272.3 361 299.7 361 327 357C354.3 353 381.7 345 409 337C436.3 329 463.7 321 491 315C518.3 309 545.7 305 573 301C600.3 297 627.7 293 654.8 295C682 297 709 305 736.2 303C763.3 301 790.7 289 818 282C845.3 275 872.7 273 886.3 272L900 271L900 203L886.3 204C872.7 205 845.3 207 818 210C790.7 213 763.3 217 736.2 220C709 223 682 225 654.8 224C627.7 223 600.3 219 573 218C545.7 217 518.3 219 491 225C463.7 231 436.3 241 409 255C381.7 269 354.3 287 327 297C299.7 307 272.3 309 245.2 304C218 299 191 287 163.8 273C136.7 259 109.3 243 82 247C54.7 251 27.3 275 13.7 287L0 299Z" fill="#0066ff"></path><path d="M0 397L13.7 404C27.3 411 54.7 425 82 431C109.3 437 136.7 435 163.8 446C191 457 218 481 245.2 484C272.3 487 299.7 469 327 451C354.3 433 381.7 415 409 413C436.3 411 463.7 425 491 424C518.3 423 545.7 407 573 396C600.3 385 627.7 379 654.8 374C682 369 709 365 736.2 360C763.3 355 790.7 349 818 343C845.3 337 872.7 331 886.3 328L900 325L900 269L886.3 270C872.7 271 845.3 273 818 280C790.7 287 763.3 299 736.2 301C709 303 682 295 654.8 293C627.7 291 600.3 295 573 299C545.7 303 518.3 307 491 313C463.7 319 436.3 327 409 335C381.7 343 354.3 351 327 355C299.7 359 272.3 359 245.2 360C218 361 191 363 163.8 358C136.7 353 109.3 341 82 336C54.7 331 27.3 333 13.7 334L0 335Z" fill="#0059dd"></path><path d="M0 601L13.7 601C27.3 601 54.7 601 82 601C109.3 601 136.7 601 163.8 601C191 601 218 601 245.2 601C272.3 601 299.7 601 327 601C354.3 601 381.7 601 409 601C436.3 601 463.7 601 491 601C518.3 601 545.7 601 573 601C600.3 601 627.7 601 654.8 601C682 601 709 601 736.2 601C763.3 601 790.7 601 818 601C845.3 601 872.7 601 886.3 601L900 601L900 323L886.3 326C872.7 329 845.3 335 818 341C790.7 347 763.3 353 736.2 358C709 363 682 367 654.8 372C627.7 377 600.3 383 573 394C545.7 405 518.3 421 491 422C463.7 423 436.3 409 409 411C381.7 413 354.3 431 327 449C299.7 467 272.3 485 245.2 482C218 479 191 455 163.8 444C136.7 433 109.3 435 82 429C54.7 423 27.3 409 13.7 402L0 395Z" fill="#004cbb"></path></svg>