<svg class="border shadow-md" viewBox="0 0 961.84 541.035" style="width: 961.84px; height: 541.035px;" xmlns="http://www.w3.org/2000/svg" preserveAspectRatio="none"><rect class="bg" id="bg" x="0" y="0" width="961.84" height="541.035" fill="#ffffff"/><g transform="rotate(0 480.92 270.5175)"><path d="M -580.92 -24.10 S -522.00 -51.16&#10;            0.00 -24.10 280.46 -51.16&#10;            580.92 -24.10 845.84 -52.10&#10;            1161.84 -24.10 1429.76 -51.16&#10;            1742.76 -24.10 h 110 V 741.035 H -580.92 Z" fill="#FF1C1C" id="-1"/><path d="M -580.92 30.00 S -356.00 2.95&#10;            0.00 30.00 188.92 2.95&#10;            580.92 30.00 743.84 -7.00&#10;            1161.84 30.00 1442.30 0.00&#10;            1742.76 30.00 h 110 V 741.035 H -580.92 Z" fill="#f31b1b" id="0"/><path d="M -580.92 84.10 S -300.46 57.05&#10;            0.00 84.10 152.92 38.10&#10;            580.92 84.10 861.38 57.05&#10;            1161.84 84.10 1442.30 57.05&#10;            1742.76 84.10 h 110 V 741.035 H -580.92 Z" fill="#e71a1a" id="1"/><path d="M -580.92 138.21 S -415.00 99.21&#10;            0.00 138.21 197.92 111.16&#10;            580.92 138.21 791.84 111.16&#10;            1161.84 138.21 1442.30 93.21&#10;            1742.76 138.21 h 110 V 741.035 H -580.92 Z" fill="#db1919" id="2"/><path d="M -580.92 192.31 S -319.00 165.26&#10;            0.00 192.31 232.92 147.31&#10;            580.92 192.31 645.84 164.31&#10;            1161.84 192.31 1442.30 164.31&#10;            1742.76 192.31 h 110 V 741.035 H -580.92 Z" fill="#cf1818" id="3"/><path d="M -580.92 246.41 S -300.46 203.41&#10;            0.00 246.41 245.92 213.41&#10;            580.92 246.41 756.84 208.41&#10;            1161.84 246.41 1442.30 192.41&#10;            1742.76 246.41 h 110 V 741.035 H -580.92 Z" fill="#c31717" id="4"/><path d="M -580.92 300.52 S -300.46 272.52&#10;            0.00 300.52 280.46 249.52&#10;            580.92 300.52 861.38 273.47&#10;            1161.84 300.52 1442.30 250.52&#10;            1742.76 300.52 h 110 V 741.035 H -580.92 Z" fill="#b71616" id="5"/><path d="M -580.92 354.62 S -300.46 316.62&#10;            0.00 354.62 280.46 327.57&#10;            580.92 354.62 709.84 308.62&#10;            1161.84 354.62 1442.30 327.57&#10;            1742.76 354.62 h 110 V 741.035 H -580.92 Z" fill="#ab1515" id="6"/><path d="M -580.92 408.72 S -381.00 381.67&#10;            0.00 408.72 41.92 381.67&#10;            580.92 408.72 779.84 372.72&#10;            1161.84 408.72 1352.76 381.67&#10;            1742.76 408.72 h 110 V 741.035 H -580.92 Z" fill="#9f1414" id="7"/><path d="M -580.92 462.83 S -333.00 428.83&#10;            0.00 462.83 280.46 435.78&#10;            580.92 462.83 791.84 435.78&#10;            1161.84 462.83 1442.30 435.78&#10;            1742.76 462.83 h 110 V 741.035 H -580.92 Z" fill="#931313" id="8"/><path d="M -580.92 516.93 S -300.46 489.88&#10;            0.00 516.93 280.46 488.93&#10;            580.92 516.93 861.38 489.88&#10;            1161.84 516.93 1368.76 489.88&#10;            1742.76 516.93 h 110 V 741.035 H -580.92 Z" fill="#871212" id="9"/></g></svg>