<svg id="visual" viewBox="0 0 900 600" width="900" height="600" xmlns="http://www.w3.org/2000/svg" xmlns:xlink="http://www.w3.org/1999/xlink" version="1.1"><path d="M0 49L82 49L82 61L164 61L164 97L245 97L245 67L327 67L327 43L409 43L409 91L491 91L491 79L573 79L573 55L655 55L655 85L736 85L736 43L818 43L818 49L900 49L900 61L900 0L900 0L818 0L818 0L736 0L736 0L655 0L655 0L573 0L573 0L491 0L491 0L409 0L409 0L327 0L327 0L245 0L245 0L164 0L164 0L82 0L82 0L0 0Z" fill="#ffffff"></path><path d="M0 175L82 175L82 307L164 307L164 295L245 295L245 163L327 163L327 355L409 355L409 211L491 211L491 289L573 289L573 253L655 253L655 241L736 241L736 277L818 277L818 301L900 301L900 145L900 59L900 47L818 47L818 41L736 41L736 83L655 83L655 53L573 53L573 77L491 77L491 89L409 89L409 41L327 41L327 65L245 65L245 95L164 95L164 59L82 59L82 47L0 47Z" fill="#ffddc5"></path><path d="M0 289L82 289L82 409L164 409L164 421L245 421L245 259L327 259L327 439L409 439L409 367L491 367L491 427L573 427L573 367L655 367L655 301L736 301L736 397L818 397L818 433L900 433L900 301L900 143L900 299L818 299L818 275L736 275L736 239L655 239L655 251L573 251L573 287L491 287L491 209L409 209L409 353L327 353L327 161L245 161L245 293L164 293L164 305L82 305L82 173L0 173Z" fill="#ffbb8c"></path><path d="M0 511L82 511L82 499L164 499L164 553L245 553L245 475L327 475L327 559L409 559L409 541L491 541L491 505L573 505L573 481L655 481L655 559L736 559L736 481L818 481L818 541L900 541L900 493L900 299L900 431L818 431L818 395L736 395L736 299L655 299L655 365L573 365L573 425L491 425L491 365L409 365L409 437L327 437L327 257L245 257L245 419L164 419L164 407L82 407L82 287L0 287Z" fill="#fd9a54"></path><path d="M0 601L82 601L82 601L164 601L164 601L245 601L245 601L327 601L327 601L409 601L409 601L491 601L491 601L573 601L573 601L655 601L655 601L736 601L736 601L818 601L818 601L900 601L900 601L900 491L900 539L818 539L818 479L736 479L736 557L655 557L655 479L573 479L573 503L491 503L491 539L409 539L409 557L327 557L327 473L245 473L245 551L164 551L164 497L82 497L82 509L0 509Z" fill="#f7770f"></path></svg>