<svg id="visual" viewBox="0 0 900 600" width="900" height="600" xmlns="http://www.w3.org/2000/svg" xmlns:xlink="http://www.w3.org/1999/xlink" version="1.1"><g stroke-width="1" stroke-linejoin="bevel"><path d="M487 339L366 375L480 382Z" fill="#01203b" stroke="#01203b"></path><path d="M487 339L378 263L366 375Z" fill="#000f1e" stroke="#000f1e"></path><path d="M325 282L308 360L366 375Z" fill="#001122" stroke="#001122"></path><path d="M306 487L405 467L366 375Z" fill="#003664" stroke="#003664"></path><path d="M366 375L405 467L480 382Z" fill="#002748" stroke="#002748"></path><path d="M378 263L325 282L366 375Z" fill="#01203b" stroke="#01203b"></path><path d="M405 467L479 478L480 382Z" fill="#001021" stroke="#001021"></path><path d="M632 405L570 291L487 339Z" fill="#000f1f" stroke="#000f1f"></path><path d="M570 291L522 231L487 339Z" fill="#001021" stroke="#001021"></path><path d="M487 339L522 231L378 263Z" fill="#000f1e" stroke="#000f1e"></path><path d="M522 231L420 195L378 263Z" fill="#01203b" stroke="#01203b"></path><path d="M378 263L338 160L325 282Z" fill="#001122" stroke="#001122"></path><path d="M632 405L487 339L480 382Z" fill="#002f56" stroke="#002f56"></path><path d="M308 360L306 487L366 375Z" fill="#003664" stroke="#003664"></path><path d="M405 467L409 600L479 478Z" fill="#002f56" stroke="#002f56"></path><path d="M232 202L231 336L325 282Z" fill="#000f1e" stroke="#000f1e"></path><path d="M325 282L231 336L308 360Z" fill="#000f1e" stroke="#000f1e"></path><path d="M308 360L231 376L306 487Z" fill="#02192e" stroke="#02192e"></path><path d="M231 336L231 376L308 360Z" fill="#000e1c" stroke="#000e1c"></path><path d="M570 291L578 229L522 231Z" fill="#002748" stroke="#002748"></path><path d="M519 79L365 107L420 195Z" fill="#002f56" stroke="#002f56"></path><path d="M365 107L338 160L420 195Z" fill="#003664" stroke="#003664"></path><path d="M420 195L338 160L378 263Z" fill="#001021" stroke="#001021"></path><path d="M479 478L632 405L480 382Z" fill="#000f1f" stroke="#000f1f"></path><path d="M570 291L700 285L578 229Z" fill="#000e1c" stroke="#000e1c"></path><path d="M517 600L591 511L479 478Z" fill="#002f56" stroke="#002f56"></path><path d="M479 478L591 511L632 405Z" fill="#002748" stroke="#002748"></path><path d="M338 160L232 202L325 282Z" fill="#001021" stroke="#001021"></path><path d="M306 487L409 600L405 467Z" fill="#000f1f" stroke="#000f1f"></path><path d="M562 123L420 195L522 231Z" fill="#002f56" stroke="#002f56"></path><path d="M338 160L199 101L232 202Z" fill="#000d1b" stroke="#000d1b"></path><path d="M409 600L517 600L479 478Z" fill="#02192e" stroke="#02192e"></path><path d="M665 137L562 123L578 229Z" fill="#000e1c" stroke="#000e1c"></path><path d="M578 229L562 123L522 231Z" fill="#002748" stroke="#002748"></path><path d="M125 464L215 516L231 376Z" fill="#003664" stroke="#003664"></path><path d="M231 376L215 516L306 487Z" fill="#002748" stroke="#002748"></path><path d="M306 487L307 600L409 600Z" fill="#01203b" stroke="#01203b"></path><path d="M125 464L231 376L103 303Z" fill="#02192e" stroke="#02192e"></path><path d="M215 516L307 600L306 487Z" fill="#01203b" stroke="#01203b"></path><path d="M723 428L700 285L632 405Z" fill="#000e1c" stroke="#000e1c"></path><path d="M632 405L700 285L570 291Z" fill="#002f56" stroke="#002f56"></path><path d="M562 123L519 79L420 195Z" fill="#000f1e" stroke="#000f1e"></path><path d="M381 0L335 69L365 107Z" fill="#02192e" stroke="#02192e"></path><path d="M365 107L335 69L338 160Z" fill="#000d1b" stroke="#000d1b"></path><path d="M700 285L697 232L578 229Z" fill="#000f1f" stroke="#000f1f"></path><path d="M562 123L572 0L519 79Z" fill="#001021" stroke="#001021"></path><path d="M517 600L590 600L591 511Z" fill="#01203b" stroke="#01203b"></path><path d="M687 514L723 428L632 405Z" fill="#000d1b" stroke="#000d1b"></path><path d="M687 514L632 405L591 511Z" fill="#001122" stroke="#001122"></path><path d="M700 285L795 278L697 232Z" fill="#001021" stroke="#001021"></path><path d="M590 600L687 514L591 511Z" fill="#000e1c" stroke="#000e1c"></path><path d="M103 303L231 376L231 336Z" fill="#001021" stroke="#001021"></path><path d="M215 516L187 600L307 600Z" fill="#001122" stroke="#001122"></path><path d="M697 232L665 137L578 229Z" fill="#02192e" stroke="#02192e"></path><path d="M82 204L103 303L232 202Z" fill="#003664" stroke="#003664"></path><path d="M232 202L103 303L231 336Z" fill="#01203b" stroke="#01203b"></path><path d="M335 69L199 101L338 160Z" fill="#002748" stroke="#002748"></path><path d="M125 464L187 600L215 516Z" fill="#002748" stroke="#002748"></path><path d="M475 0L365 107L519 79Z" fill="#000d1b" stroke="#000d1b"></path><path d="M475 0L381 0L365 107Z" fill="#001021" stroke="#001021"></path><path d="M335 69L222 0L199 101Z" fill="#002748" stroke="#002748"></path><path d="M572 0L475 0L519 79Z" fill="#001122" stroke="#001122"></path><path d="M103 303L68 439L125 464Z" fill="#000e1c" stroke="#000e1c"></path><path d="M125 464L93 600L187 600Z" fill="#001021" stroke="#001021"></path><path d="M381 0L315 0L335 69Z" fill="#000f1e" stroke="#000f1e"></path><path d="M199 101L82 204L232 202Z" fill="#001021" stroke="#001021"></path><path d="M103 303L0 370L68 439Z" fill="#02192e" stroke="#02192e"></path><path d="M590 600L704 600L687 514Z" fill="#002f56" stroke="#002f56"></path><path d="M687 514L775 497L723 428Z" fill="#003664" stroke="#003664"></path><path d="M819 402L795 278L723 428Z" fill="#001122" stroke="#001122"></path><path d="M723 428L795 278L700 285Z" fill="#000f1f" stroke="#000f1f"></path><path d="M697 232L824 82L665 137Z" fill="#000f1e" stroke="#000f1e"></path><path d="M704 600L775 497L687 514Z" fill="#002f56" stroke="#002f56"></path><path d="M680 0L572 0L665 137Z" fill="#001021" stroke="#001021"></path><path d="M665 137L572 0L562 123Z" fill="#02192e" stroke="#02192e"></path><path d="M775 497L819 402L723 428Z" fill="#002f56" stroke="#002f56"></path><path d="M315 0L222 0L335 69Z" fill="#02192e" stroke="#02192e"></path><path d="M199 101L125 60L82 204Z" fill="#002f56" stroke="#002f56"></path><path d="M68 439L93 600L125 464Z" fill="#000f1e" stroke="#000f1e"></path><path d="M222 0L125 60L199 101Z" fill="#02192e" stroke="#02192e"></path><path d="M900 304L831 227L795 278Z" fill="#000f1f" stroke="#000f1f"></path><path d="M795 278L831 227L697 232Z" fill="#000d1b" stroke="#000d1b"></path><path d="M0 312L0 370L103 303Z" fill="#000f1e" stroke="#000f1e"></path><path d="M68 439L0 470L93 600Z" fill="#002f56" stroke="#002f56"></path><path d="M0 312L103 303L0 234Z" fill="#000f1f" stroke="#000f1f"></path><path d="M0 234L103 303L82 204Z" fill="#000e1c" stroke="#000e1c"></path><path d="M782 0L680 0L665 137Z" fill="#003664" stroke="#003664"></path><path d="M0 90L0 234L82 204Z" fill="#01203b" stroke="#01203b"></path><path d="M0 370L0 470L68 439Z" fill="#01203b" stroke="#01203b"></path><path d="M222 0L137 0L125 60Z" fill="#000d1b" stroke="#000d1b"></path><path d="M125 60L0 90L82 204Z" fill="#01203b" stroke="#01203b"></path><path d="M704 600L814 600L775 497Z" fill="#000e1c" stroke="#000e1c"></path><path d="M900 500L900 390L819 402Z" fill="#001122" stroke="#001122"></path><path d="M819 402L900 304L795 278Z" fill="#02192e" stroke="#02192e"></path><path d="M900 500L819 402L775 497Z" fill="#000f1f" stroke="#000f1f"></path><path d="M900 390L900 304L819 402Z" fill="#000f1e" stroke="#000f1e"></path><path d="M831 227L824 82L697 232Z" fill="#003664" stroke="#003664"></path><path d="M900 135L824 82L831 227Z" fill="#000d1b" stroke="#000d1b"></path><path d="M0 470L0 600L93 600Z" fill="#003664" stroke="#003664"></path><path d="M814 600L900 500L775 497Z" fill="#02192e" stroke="#02192e"></path><path d="M0 0L0 90L125 60Z" fill="#01203b" stroke="#01203b"></path><path d="M900 304L900 195L831 227Z" fill="#000d1b" stroke="#000d1b"></path><path d="M900 0L782 0L824 82Z" fill="#000f1e" stroke="#000f1e"></path><path d="M824 82L782 0L665 137Z" fill="#001122" stroke="#001122"></path><path d="M900 195L900 135L831 227Z" fill="#001122" stroke="#001122"></path><path d="M814 600L900 600L900 500Z" fill="#000e1c" stroke="#000e1c"></path><path d="M137 0L0 0L125 60Z" fill="#000f1e" stroke="#000f1e"></path><path d="M900 135L900 0L824 82Z" fill="#01203b" stroke="#01203b"></path></g></svg>