<svg id="visual" viewBox="0 0 900 600" width="900" height="600" xmlns="http://www.w3.org/2000/svg" xmlns:xlink="http://www.w3.org/1999/xlink" version="1.1"><rect x="0" y="0" width="900" height="600" fill="#001220"></rect><path d="M0 395L21.5 389.8C43 384.7 86 374.3 128.8 360.5C171.7 346.7 214.3 329.3 257.2 333.5C300 337.7 343 363.3 385.8 368.7C428.7 374 471.3 359 514.2 352.8C557 346.7 600 349.3 642.8 355.3C685.7 361.3 728.3 370.7 771.2 361.3C814 352 857 324 878.5 310L900 296L900 601L878.5 601C857 601 814 601 771.2 601C728.3 601 685.7 601 642.8 601C600 601 557 601 514.2 601C471.3 601 428.7 601 385.8 601C343 601 300 601 257.2 601C214.3 601 171.7 601 128.8 601C86 601 43 601 21.5 601L0 601Z" fill="#bb004d"></path><path d="M0 340L21.5 344.5C43 349 86 358 128.8 359.7C171.7 361.3 214.3 355.7 257.2 366.8C300 378 343 406 385.8 414.2C428.7 422.3 471.3 410.7 514.2 396.3C557 382 600 365 642.8 358.2C685.7 351.3 728.3 354.7 771.2 353C814 351.3 857 344.7 878.5 341.3L900 338L900 601L878.5 601C857 601 814 601 771.2 601C728.3 601 685.7 601 642.8 601C600 601 557 601 514.2 601C471.3 601 428.7 601 385.8 601C343 601 300 601 257.2 601C214.3 601 171.7 601 128.8 601C86 601 43 601 21.5 601L0 601Z" fill="#d10055"></path><path d="M0 407L21.5 403.7C43 400.3 86 393.7 128.8 394.2C171.7 394.7 214.3 402.3 257.2 407.5C300 412.7 343 415.3 385.8 424C428.7 432.7 471.3 447.3 514.2 441.2C557 435 600 408 642.8 397.5C685.7 387 728.3 393 771.2 405.7C814 418.3 857 437.7 878.5 447.3L900 457L900 601L878.5 601C857 601 814 601 771.2 601C728.3 601 685.7 601 642.8 601C600 601 557 601 514.2 601C471.3 601 428.7 601 385.8 601C343 601 300 601 257.2 601C214.3 601 171.7 601 128.8 601C86 601 43 601 21.5 601L0 601Z" fill="#e8005e"></path><path d="M0 421L21.5 424.5C43 428 86 435 128.8 438.3C171.7 441.7 214.3 441.3 257.2 437.5C300 433.7 343 426.3 385.8 432.5C428.7 438.7 471.3 458.3 514.2 461.2C557 464 600 450 642.8 441.7C685.7 433.3 728.3 430.7 771.2 428.2C814 425.7 857 423.3 878.5 422.2L900 421L900 601L878.5 601C857 601 814 601 771.2 601C728.3 601 685.7 601 642.8 601C600 601 557 601 514.2 601C471.3 601 428.7 601 385.8 601C343 601 300 601 257.2 601C214.3 601 171.7 601 128.8 601C86 601 43 601 21.5 601L0 601Z" fill="#ff0066"></path><path d="M0 504L21.5 501C43 498 86 492 128.8 493C171.7 494 214.3 502 257.2 498.2C300 494.3 343 478.7 385.8 479C428.7 479.3 471.3 495.7 514.2 504.5C557 513.3 600 514.7 642.8 510.2C685.7 505.7 728.3 495.3 771.2 486.5C814 477.7 857 470.3 878.5 466.7L900 463L900 601L878.5 601C857 601 814 601 771.2 601C728.3 601 685.7 601 642.8 601C600 601 557 601 514.2 601C471.3 601 428.7 601 385.8 601C343 601 300 601 257.2 601C214.3 601 171.7 601 128.8 601C86 601 43 601 21.5 601L0 601Z" fill="#ff3e7a"></path><path d="M0 519L21.5 516.3C43 513.7 86 508.3 128.8 508.3C171.7 508.3 214.3 513.7 257.2 519.8C300 526 343 533 385.8 532.5C428.7 532 471.3 524 514.2 522.7C557 521.3 600 526.7 642.8 528C685.7 529.3 728.3 526.7 771.2 521.3C814 516 857 508 878.5 504L900 500L900 601L878.5 601C857 601 814 601 771.2 601C728.3 601 685.7 601 642.8 601C600 601 557 601 514.2 601C471.3 601 428.7 601 385.8 601C343 601 300 601 257.2 601C214.3 601 171.7 601 128.8 601C86 601 43 601 21.5 601L0 601Z" fill="#ff5c8c"></path><path d="M0 576L21.5 574.7C43 573.3 86 570.7 128.8 568.7C171.7 566.7 214.3 565.3 257.2 563C300 560.7 343 557.3 385.8 555.8C428.7 554.3 471.3 554.7 514.2 554.7C557 554.7 600 554.3 642.8 553.3C685.7 552.3 728.3 550.7 771.2 553.8C814 557 857 565 878.5 569L900 573L900 601L878.5 601C857 601 814 601 771.2 601C728.3 601 685.7 601 642.8 601C600 601 557 601 514.2 601C471.3 601 428.7 601 385.8 601C343 601 300 601 257.2 601C214.3 601 171.7 601 128.8 601C86 601 43 601 21.5 601L0 601Z" fill="#ff749e"></path></svg>