<svg id="visual" viewBox="0 0 900 600" width="900" height="600" xmlns="http://www.w3.org/2000/svg" xmlns:xlink="http://www.w3.org/1999/xlink" version="1.1"><path d="M602 600L620 600L620 567L890 567L890 533L890 533L890 500L638 500L638 467L656 467L656 433L674 433L674 400L710 400L710 367L791 367L791 333L755 333L755 300L719 300L719 267L818 267L818 233L719 233L719 200L710 200L710 167L836 167L836 133L800 133L800 100L665 100L665 67L845 67L845 33L791 33L791 0L900 0L900 33L900 33L900 67L900 67L900 100L900 100L900 133L900 133L900 167L900 167L900 200L900 200L900 233L900 233L900 267L900 267L900 300L900 300L900 333L900 333L900 367L900 367L900 400L900 400L900 433L900 433L900 467L900 467L900 500L900 500L900 533L900 533L900 567L900 567L900 600L900 600Z" fill="#ffc0cb"></path><path d="M584 600L494 600L494 567L728 567L728 533L836 533L836 500L611 500L611 467L431 467L431 433L557 433L557 400L602 400L602 367L656 367L656 333L539 333L539 300L647 300L647 267L683 267L683 233L602 233L602 200L638 200L638 167L701 167L701 133L710 133L710 100L620 100L620 67L611 67L611 33L746 33L746 0L792 0L792 33L846 33L846 67L666 67L666 100L801 100L801 133L837 133L837 167L711 167L711 200L720 200L720 233L819 233L819 267L720 267L720 300L756 300L756 333L792 333L792 367L711 367L711 400L675 400L675 433L657 433L657 467L639 467L639 500L891 500L891 533L891 533L891 567L621 567L621 600L603 600Z" fill="#ffacba"></path><path d="M314 600L224 600L224 567L107 567L107 533L251 533L251 500L287 500L287 467L368 467L368 433L224 433L224 400L377 400L377 367L530 367L530 333L242 333L242 300L341 300L341 267L233 267L233 233L233 233L233 200L350 200L350 167L584 167L584 133L458 133L458 100L566 100L566 67L161 67L161 33L260 33L260 0L747 0L747 33L612 33L612 67L621 67L621 100L711 100L711 133L702 133L702 167L639 167L639 200L603 200L603 233L684 233L684 267L648 267L648 300L540 300L540 333L657 333L657 367L603 367L603 400L558 400L558 433L432 433L432 467L612 467L612 500L837 500L837 533L729 533L729 567L495 567L495 600L585 600Z" fill="#ff98a9"></path><path d="M170 600L143 600L143 567L44 567L44 533L89 533L89 500L188 500L188 467L314 467L314 433L197 433L197 400L197 400L197 367L467 367L467 333L116 333L116 300L161 300L161 267L197 267L197 233L71 233L71 200L278 200L278 167L467 167L467 133L413 133L413 100L368 100L368 67L53 67L53 33L251 33L251 0L261 0L261 33L162 33L162 67L567 67L567 100L459 100L459 133L585 133L585 167L351 167L351 200L234 200L234 233L234 233L234 267L342 267L342 300L243 300L243 333L531 333L531 367L378 367L378 400L225 400L225 433L369 433L369 467L288 467L288 500L252 500L252 533L108 533L108 567L225 567L225 600L315 600Z" fill="#ff8397"></path><path d="M0 600L0 600L0 567L0 567L0 533L0 533L0 500L0 500L0 467L0 467L0 433L0 433L0 400L0 400L0 367L0 367L0 333L0 333L0 300L0 300L0 267L0 267L0 233L0 233L0 200L0 200L0 167L0 167L0 133L0 133L0 100L0 100L0 67L0 67L0 33L0 33L0 0L252 0L252 33L54 33L54 67L369 67L369 100L414 100L414 133L468 133L468 167L279 167L279 200L72 200L72 233L198 233L198 267L162 267L162 300L117 300L117 333L468 333L468 367L198 367L198 400L198 400L198 433L315 433L315 467L189 467L189 500L90 500L90 533L45 533L45 567L144 567L144 600L171 600Z" fill="#fe6d85"></path></svg>